<?xml version="1.0" encoding="utf-8"?>
<!-- Generator: Adobe Illustrator 24.1.2, SVG Export Plug-In . SVG Version: 6.00 Build 0)  -->
<svg version="1.1" id="圖層_1" xmlns="http://www.w3.org/2000/svg" xmlns:xlink="http://www.w3.org/1999/xlink" x="0px" y="0px"
	 viewBox="0 0 1280 800" style="enable-background:new 0 0 1280 800;" xml:space="preserve">
<style type="text/css">
	.st0{fill:#383838;}
	.st1{fill:#FFFFFF;}
	.st2{fill:#FEFEFE;}
</style>
<g>
	<path class="st0" d="M791.92,444.82c-1.09,1.05-1.27,1.89-0.11,3.01c2.45,2.37,4.83,4.82,7.25,7.23c0.62,0.61,1.28,1.32,2.16,0.46
		c0.86-0.85,0.22-1.58-0.4-2.18c-1.81-1.77-3.65-3.52-5.48-5.27c0.09-0.17,0.18-0.34,0.27-0.5h14.38c1,0,2.27,0.14,2.23-1.25
		c-0.04-1.39-1.36-1.17-2.32-1.18c-2.56-0.02-5.12-0.01-7.68-0.01h-6.49c-0.08-0.17-0.15-0.34-0.23-0.51
		c1.7-1.67,3.41-3.32,5.08-5.01c0.68-0.68,1.69-1.44,0.55-2.46c-1.03-0.91-1.66,0.11-2.29,0.73
		C796.53,440.19,794.28,442.55,791.92,444.82z"/>
	<path class="st1" d="M776.69,446.36c0,13.78,11.21,25.03,24.91,25.01c13.77-0.02,24.89-11.21,24.87-25.03
		c-0.03-13.89-11.05-24.95-24.89-24.97C787.82,421.35,776.69,432.53,776.69,446.36z M779.12,446.61
		c-0.1-12.57,9.94-22.78,22.43-22.81c12.44-0.03,22.41,9.96,22.46,22.5c0.05,12.42-9.85,22.5-22.16,22.58
		C789.38,468.96,779.22,459,779.12,446.61z"/>
	<path class="st2" d="M791.82,447.84c2.45,2.37,4.83,4.82,7.25,7.23c0.62,0.61,1.28,1.32,2.16,0.46c0.86-0.85,0.22-1.58-0.4-2.18
		c-1.81-1.77-3.65-3.52-5.48-5.27c0.09-0.17,0.18-0.34,0.27-0.5h14.38c1,0,2.27,0.14,2.23-1.25c-0.04-1.39-1.36-1.17-2.32-1.18
		c-2.56-0.02-5.12-0.01-7.68-0.01h-6.49c-0.08-0.17-0.15-0.34-0.23-0.51c1.7-1.67,3.41-3.32,5.08-5.01
		c0.68-0.68,1.69-1.44,0.55-2.46c-1.03-0.91-1.66,0.11-2.29,0.73c-2.32,2.31-4.57,4.68-6.92,6.95
		C790.83,445.87,790.65,446.72,791.82,447.84z"/>
	<path class="st1" d="M791.82,447.84c2.45,2.37,4.83,4.82,7.25,7.23c0.62,0.61,1.28,1.32,2.16,0.46c0.86-0.85,0.22-1.58-0.4-2.18
		c-1.81-1.77-3.65-3.52-5.48-5.27c0.09-0.17,0.18-0.34,0.27-0.5h14.38c1,0,2.27,0.14,2.23-1.25c-0.04-1.39-1.36-1.17-2.32-1.18
		c-2.56-0.02-5.12-0.01-7.68-0.01h-6.49c-0.08-0.17-0.15-0.34-0.23-0.51c1.7-1.67,3.41-3.32,5.08-5.01
		c0.68-0.68,1.69-1.44,0.55-2.46c-1.03-0.91-1.66,0.11-2.29,0.73c-2.32,2.31-4.57,4.68-6.92,6.95
		C790.83,445.87,790.65,446.72,791.82,447.84z"/>
</g>
</svg>
