<?xml version="1.0" encoding="utf-8"?>
<!-- Generator: Adobe Illustrator 24.1.2, SVG Export Plug-In . SVG Version: 6.00 Build 0)  -->
<svg version="1.1" id="圖層_1" xmlns="http://www.w3.org/2000/svg" xmlns:xlink="http://www.w3.org/1999/xlink" x="0px" y="0px"
	 viewBox="0 0 841.89 595.28" style="enable-background:new 0 0 841.89 595.28;" xml:space="preserve">
<style type="text/css">
	.st0{fill:#050100;}
	.st1{fill:#050101;}
	.st2{fill:#050201;}
	.st3{fill:#DAC191;}
	.st4{fill:#070403;}
	.st5{fill:#0E0D09;}
	.st6{fill:#070503;}
	.st7{fill:#080503;}
</style>
<path d="M435.25,243.69h-14.3l-6.79-28.06l-5.99,28.06h-5.5l8.25-38.82h14.61l6.42,28.43l6.05-28.43h5.62L435.25,243.69z
	 M449.47,219.67c2.08-1.02,4.2-1.75,6.36-2.2c2.2-0.49,4.65-0.73,7.34-0.73c2.61,0,4.77,0.2,6.48,0.61c1.71,0.41,3.08,1,4.1,1.77
	c1.02,0.77,1.73,1.69,2.14,2.75c0.41,1.06,0.61,2.26,0.61,3.61c0,0.77-0.06,1.61-0.18,2.51c-0.08,0.9-0.18,1.65-0.31,2.26
	l-2.87,13.45h-9.84l-1.1-3.91h-0.37c-1.3,1.43-2.83,2.53-4.58,3.3c-1.71,0.73-3.42,1.1-5.14,1.1c-0.98,0-1.94-0.14-2.87-0.43
	c-0.94-0.29-1.77-0.71-2.51-1.28c-0.73-0.61-1.32-1.37-1.77-2.26c-0.45-0.94-0.67-2.06-0.67-3.36c0-2.12,0.57-3.79,1.71-5.01
	c1.18-1.26,2.71-2.2,4.58-2.81c1.92-0.65,4.06-1.06,6.42-1.22c2.4-0.16,4.81-0.24,7.21-0.24c0.08-0.41,0.18-0.98,0.31-1.71
	c0.12-0.77,0.18-1.45,0.18-2.02c0-0.73-0.2-1.41-0.61-2.02c-0.37-0.65-1.16-0.98-2.38-0.98c-1.43,0-2.49,0.43-3.18,1.28
	c-0.65,0.82-1.08,1.81-1.28,3h-8.93L449.47,219.67z M463.53,230.43h-1.1c-1.18,0-2.2,0.16-3.06,0.49c-0.82,0.29-1.49,0.67-2.02,1.16
	c-0.49,0.49-0.86,1.04-1.1,1.65c-0.24,0.61-0.37,1.22-0.37,1.83c0,0.98,0.24,1.71,0.73,2.2c0.53,0.49,1.14,0.73,1.83,0.73
	c0.86,0,1.69-0.31,2.51-0.92c0.86-0.61,1.39-1.43,1.59-2.45L463.53,230.43z M498.23,221.32c0.86-0.82,1.81-1.57,2.87-2.26
	c0.94-0.57,2.04-1.1,3.3-1.59c1.26-0.49,2.67-0.73,4.22-0.73c2.12,0,3.87,0.55,5.26,1.65c1.39,1.06,2.08,2.53,2.08,4.4
	c0,0.53-0.06,1.18-0.18,1.96c-0.12,0.73-0.26,1.51-0.43,2.32s-0.35,1.65-0.55,2.51c-0.16,0.82-0.31,1.55-0.43,2.2l-2.57,11.92H499.4
	l3.36-15.95c0.08-0.53,0.18-1.06,0.31-1.59c0.12-0.57,0.18-1.08,0.18-1.53c0-0.61-0.16-1.1-0.49-1.47
	c-0.29-0.41-0.73-0.61-1.34-0.61c-0.73,0-1.45,0.26-2.14,0.79c-0.65,0.53-1.16,0.98-1.53,1.34l-4.03,19.01h-12.47l5.56-26.29h9.96
	l1.1,3.91H498.23z M525.13,219.67c2.08-1.02,4.2-1.75,6.36-2.2c2.2-0.49,4.65-0.73,7.34-0.73c2.61,0,4.77,0.2,6.48,0.61
	c1.71,0.41,3.08,1,4.1,1.77c1.02,0.77,1.73,1.69,2.14,2.75s0.61,2.26,0.61,3.61c0,0.77-0.06,1.61-0.18,2.51
	c-0.08,0.9-0.18,1.65-0.31,2.26l-2.87,13.45h-9.84l-1.1-3.91h-0.37c-1.3,1.43-2.83,2.53-4.58,3.3c-1.71,0.73-3.42,1.1-5.13,1.1
	c-0.98,0-1.94-0.14-2.87-0.43c-0.94-0.29-1.77-0.71-2.51-1.28c-0.73-0.61-1.32-1.37-1.77-2.26c-0.45-0.94-0.67-2.06-0.67-3.36
	c0-2.12,0.57-3.79,1.71-5.01c1.18-1.26,2.71-2.2,4.58-2.81c1.92-0.65,4.05-1.06,6.42-1.22c2.4-0.16,4.81-0.24,7.21-0.24
	c0.08-0.41,0.18-0.98,0.31-1.71c0.12-0.77,0.18-1.45,0.18-2.02c0-0.73-0.2-1.41-0.61-2.02c-0.37-0.65-1.16-0.98-2.38-0.98
	c-1.43,0-2.49,0.43-3.18,1.28c-0.65,0.82-1.08,1.81-1.28,3h-8.92L525.13,219.67z M539.19,230.43h-1.1c-1.18,0-2.2,0.16-3.06,0.49
	c-0.82,0.29-1.49,0.67-2.02,1.16c-0.49,0.49-0.86,1.04-1.1,1.65c-0.24,0.61-0.37,1.22-0.37,1.83c0,0.98,0.24,1.71,0.73,2.2
	c0.53,0.49,1.14,0.73,1.83,0.73c0.86,0,1.69-0.31,2.51-0.92c0.86-0.61,1.39-1.43,1.59-2.45L539.19,230.43z M575.02,207.01
	c0,1.55-0.37,3.04-1.1,4.46c-0.73,1.43-1.67,2.75-2.81,3.97c-1.14,1.18-2.42,2.24-3.85,3.18c-1.39,0.94-2.75,1.65-4.1,2.14
	l-1.71-2.57c1.47-1.14,2.57-2.16,3.3-3.06c0.77-0.9,1.16-1.77,1.16-2.63c0-1.47-1.12-3.04-3.36-4.71c0-0.98,0.18-1.85,0.55-2.63
	c0.37-0.77,0.86-1.43,1.47-1.96c0.61-0.53,1.32-0.94,2.14-1.22c0.82-0.29,1.65-0.43,2.51-0.43c1.67,0,3.06,0.45,4.16,1.34
	C574.47,203.82,575.02,205.18,575.02,207.01z M593.66,225.11c0.04-0.2,0.08-0.41,0.12-0.61s0.06-0.43,0.06-0.67
	c0-0.73-0.14-1.41-0.43-2.02c-0.24-0.65-0.75-0.98-1.53-0.98c-0.69,0-1.39,0.31-2.08,0.92c-0.69,0.57-1.04,1.34-1.04,2.32
	c0,0.65,0.16,1.18,0.49,1.59c0.37,0.37,0.84,0.67,1.41,0.92c0.57,0.24,1.2,0.45,1.89,0.61c0.73,0.16,1.45,0.33,2.14,0.49
	c0.98,0.24,1.9,0.55,2.75,0.92c0.9,0.33,1.69,0.77,2.38,1.34c0.69,0.57,1.24,1.28,1.65,2.14c0.41,0.82,0.61,1.83,0.61,3.06
	c0,1.71-0.41,3.16-1.22,4.34c-0.77,1.14-1.87,2.08-3.3,2.81c-1.39,0.69-3.04,1.18-4.95,1.47c-1.87,0.29-3.89,0.43-6.05,0.43
	c-3.3,0-6.03-0.24-8.19-0.73s-3.67-0.96-4.52-1.41l1.28-6.11h8.25c-0.04,0.2-0.06,0.41-0.06,0.61c0,0.16,0,0.35,0,0.55
	c0,0.94,0.2,1.69,0.61,2.26c0.45,0.53,1.2,0.79,2.26,0.79c1.18,0,2.02-0.33,2.51-0.98c0.53-0.69,0.79-1.32,0.79-1.9
	s-0.22-1.06-0.67-1.47c-0.41-0.45-0.94-0.82-1.59-1.1c-0.65-0.33-1.39-0.59-2.2-0.79c-0.77-0.24-1.53-0.47-2.26-0.67
	c-0.53-0.12-1.14-0.33-1.83-0.61c-0.65-0.29-1.28-0.69-1.89-1.22c-0.61-0.53-1.12-1.2-1.53-2.02c-0.41-0.86-0.61-1.92-0.61-3.18
	c0-1.79,0.43-3.28,1.28-4.46c0.9-1.22,2.04-2.2,3.42-2.93c1.43-0.73,3.02-1.26,4.77-1.59c1.79-0.33,3.59-0.49,5.38-0.49
	c2.24,0,4.36,0.2,6.36,0.61c2,0.41,3.63,0.94,4.89,1.59l-1.41,6.17H593.66z M420.58,299.18l15.1-16.93h6.91L428.9,297.1l9.29,24.02
	h-13.33l-5.38-17.06l-3.61,17.06h-13.2l8.25-38.82h13.27L420.58,299.18z M454.72,321.12h-12.41l5.56-26.29h12.53L454.72,321.12z
	 M461.99,286.83c0,0.94-0.2,1.75-0.61,2.45c-0.37,0.69-0.88,1.28-1.53,1.77c-0.61,0.49-1.32,0.86-2.14,1.1s-1.65,0.37-2.51,0.37
	c-1.63,0-3-0.39-4.1-1.16c-1.1-0.77-1.65-2-1.65-3.67c0-0.9,0.18-1.69,0.55-2.38c0.37-0.73,0.86-1.32,1.47-1.77
	c0.65-0.49,1.39-0.86,2.2-1.1c0.86-0.24,1.73-0.37,2.63-0.37c1.59,0,2.93,0.39,4.03,1.16C461.44,284,461.99,285.2,461.99,286.83z
	 M466.7,294.84c1.51-0.33,2.83-0.69,3.97-1.1s2.18-0.92,3.12-1.53c0.98-0.61,1.9-1.37,2.75-2.26c0.9-0.9,1.85-2,2.87-3.3h6.3
	l-1.77,8.19h4.77l-0.79,4.1h-4.83l-2.51,11.92c-0.2,0.94-0.37,1.77-0.49,2.51c-0.12,0.73-0.18,1.3-0.18,1.71
	c0,0.82,0.29,1.32,0.86,1.53c0.61,0.2,1.73,0.31,3.36,0.31l-0.92,4.22c-0.29,0.08-0.73,0.14-1.34,0.18
	c-0.57,0.04-1.22,0.08-1.96,0.12c-0.69,0.08-1.43,0.12-2.2,0.12c-0.73,0.04-1.39,0.06-1.96,0.06c-1.02,0-2.02-0.08-3-0.24
	c-0.98-0.12-1.85-0.39-2.63-0.79c-0.77-0.45-1.41-1.08-1.9-1.89c-0.45-0.82-0.67-1.92-0.67-3.3c0-0.49,0.02-1.1,0.06-1.83
	c0.08-0.73,0.22-1.55,0.43-2.45l2.57-12.16h-4.77L466.7,294.84z M517.48,319.66c-1.71,0.69-3.53,1.18-5.44,1.47
	c-1.87,0.33-4.01,0.49-6.42,0.49c-2.12,0-4.08-0.2-5.87-0.61c-1.75-0.45-3.28-1.14-4.58-2.08c-1.3-0.94-2.32-2.14-3.06-3.61
	c-0.73-1.51-1.1-3.32-1.1-5.44c0-2.2,0.37-4.24,1.1-6.11c0.77-1.92,1.92-3.59,3.42-5.01c1.55-1.43,3.5-2.55,5.87-3.36
	c2.36-0.82,5.18-1.22,8.44-1.22c2.65,0,4.95,0.22,6.91,0.67c1.96,0.41,3.57,1.37,4.83,2.87l-1.71,7.82h-8.31
	c0.04-0.69,0.08-1.3,0.12-1.83c0.04-0.53,0.06-1.12,0.06-1.77c0-1.3-0.14-2.22-0.43-2.75c-0.29-0.57-0.75-0.86-1.41-0.86
	c-1.14,0-2.14,0.57-3,1.71c-0.86,1.1-1.57,2.45-2.14,4.03c-0.53,1.55-0.94,3.2-1.22,4.95c-0.24,1.71-0.37,3.18-0.37,4.4
	c0,0.45,0.02,0.92,0.06,1.41c0.04,0.45,0.12,0.88,0.24,1.28c0.16,0.41,0.37,0.73,0.61,0.98c0.24,0.24,0.59,0.37,1.04,0.37
	c0.41,0,0.88-0.12,1.41-0.37c0.53-0.24,1.04-0.61,1.53-1.1c0.49-0.53,0.96-1.2,1.41-2.02c0.45-0.82,0.79-1.79,1.04-2.93h8.74
	L517.48,319.66z M541.9,298.75h0.43c0.77-0.77,1.67-1.49,2.69-2.14c0.86-0.57,1.87-1.08,3.06-1.53c1.18-0.45,2.51-0.67,3.97-0.67
	c2.12,0,3.87,0.55,5.26,1.65c1.39,1.06,2.08,2.53,2.08,4.4c0,0.57-0.06,1.22-0.18,1.96c-0.12,0.69-0.26,1.45-0.43,2.26
	c-0.16,0.77-0.35,1.57-0.55,2.38c-0.16,0.77-0.31,1.49-0.43,2.14l-2.57,11.92h-12.41l3.36-15.95c0.08-0.53,0.18-1.06,0.31-1.59
	c0.12-0.57,0.18-1.08,0.18-1.53c0-0.61-0.16-1.1-0.49-1.47c-0.29-0.41-0.73-0.61-1.34-0.61c-0.73,0-1.45,0.26-2.14,0.79
	c-0.65,0.53-1.16,1-1.53,1.41l-4.03,18.95h-12.47l8.68-41.08h12.53L541.9,298.75z M577.48,308.84c-0.16,0.9-0.29,1.75-0.37,2.57
	c-0.04,0.82-0.06,1.55-0.06,2.2c0,0.37,0.02,0.77,0.06,1.22c0.04,0.45,0.12,0.88,0.24,1.28c0.16,0.37,0.37,0.69,0.61,0.98
	c0.29,0.24,0.67,0.37,1.16,0.37c0.37,0,0.77-0.12,1.22-0.37c0.49-0.24,0.96-0.59,1.41-1.04c0.49-0.45,0.94-1,1.34-1.65
	c0.45-0.65,0.79-1.39,1.04-2.2h10.03l-1.59,6.54c-0.82,0.53-1.75,0.98-2.81,1.34c-1.06,0.37-2.18,0.67-3.36,0.92
	c-1.18,0.2-2.38,0.35-3.61,0.43c-1.22,0.12-2.38,0.18-3.48,0.18c-2.04,0-3.93-0.18-5.69-0.55c-1.75-0.37-3.28-1-4.58-1.9
	c-1.3-0.9-2.34-2.08-3.12-3.55c-0.73-1.51-1.1-3.36-1.1-5.56c0-2,0.31-3.95,0.92-5.87c0.65-1.92,1.71-3.61,3.18-5.07
	c1.51-1.51,3.5-2.71,5.99-3.61c2.53-0.9,5.66-1.34,9.41-1.34c4.08,0,7.13,0.63,9.17,1.9c2.08,1.26,3.12,3.24,3.12,5.93
	c0,1.1-0.16,2.3-0.49,3.61c-0.33,1.26-0.82,2.34-1.47,3.24H577.48z M585.61,301.56c0-1.26-0.2-2.12-0.61-2.57s-0.9-0.67-1.47-0.67
	c-0.65,0-1.26,0.22-1.83,0.67c-0.53,0.41-1.02,0.98-1.47,1.71c-0.45,0.69-0.86,1.51-1.22,2.45c-0.37,0.9-0.67,1.85-0.92,2.87h6.97
	c0.08-0.49,0.16-1,0.24-1.53c0.08-0.45,0.14-0.94,0.18-1.47C585.57,302.5,585.61,302.01,585.61,301.56z M617.02,298.75
	c0.86-0.82,1.81-1.57,2.87-2.26c0.94-0.57,2.04-1.1,3.3-1.59c1.26-0.49,2.67-0.73,4.22-0.73c2.12,0,3.87,0.55,5.26,1.65
	c1.39,1.06,2.08,2.53,2.08,4.4c0,0.53-0.06,1.18-0.18,1.96c-0.12,0.73-0.26,1.51-0.43,2.32c-0.16,0.82-0.35,1.65-0.55,2.51
	c-0.16,0.82-0.31,1.55-0.43,2.2l-2.57,11.92h-12.41l3.36-15.95c0.08-0.53,0.18-1.06,0.31-1.59c0.12-0.57,0.18-1.08,0.18-1.53
	c0-0.61-0.16-1.1-0.49-1.47c-0.29-0.41-0.73-0.61-1.34-0.61c-0.73,0-1.45,0.26-2.14,0.79c-0.65,0.53-1.16,0.98-1.53,1.34
	l-4.03,19.01h-12.47l5.56-26.29h9.96l1.1,3.91H617.02z"/>
<g>
	<path class="st0" d="M295.78,292.86c0.13,1.36-0.28,2.47-1.69,2.7c-1.49,0.25-2.11-0.9-2.31-2.12c-1.34-7.68-2.63-15.35-3.9-23.04
		c-0.22-1.34,0.29-2.38,1.73-2.61c1.25-0.19,2.11,0.54,2.31,1.7C293.23,277.28,294.5,285.08,295.78,292.86z"/>
	<path class="st0" d="M307.84,292.63c0.02,1.45-0.28,2.83-1.84,2.94c-1.82,0.13-2.31-1.4-2.32-2.91
		c-0.04-7.34-0.03-14.67-0.01-22.01c0.01-1.54,0.45-2.97,2.31-2.89c1.74,0.07,1.87,1.47,1.85,2.86c-0.02,3.67-0.01,7.34-0.01,11
		S307.8,288.96,307.84,292.63z"/>
	<path class="st0" d="M323.42,250.72c1.06,1.94-0.61,2.72-1.96,3.45c-4.85,2.66-10.02,4.11-15.79,3.97
		c-5.37,0.19-10.55-1.26-15.4-3.9c-1.3-0.7-3.15-1.45-2.16-3.4c0.94-1.87,2.5-1.1,3.95-0.33c9.12,4.86,18.27,4.84,27.43,0.1
		C320.8,249.93,322.32,248.71,323.42,250.72z"/>
	<path class="st0" d="M323.7,270.69c-1.28,7.55-2.57,15.1-3.82,22.67c-0.23,1.35-0.96,2.35-2.28,2.2c-1.25-0.14-2.04-1.18-1.8-2.59
		c1.3-7.67,2.64-15.34,3.94-23.01c0.26-1.52,0.94-2.49,2.59-2.11C323.84,268.2,323.83,269.43,323.7,270.69z"/>
	<path class="st0" d="M350.86,206.64c-8.8-6.27-18.27-6.63-27.78-1.58c-1.89,1-3.02,0.81-4.75-0.11c-8.2-4.37-16.59-4.44-24.79-0.1
		c-2.07,1.09-3.35,1.04-5.4,0c-9.72-4.94-19.31-4.38-28.02,2.25c-8.62,6.56-11.86,15.65-9.53,26.12
		c2.42,10.92,9.49,17.72,20.61,19.9c2.05,0.41,3.25,0.9,3.39,3.4c1.17,20.23,3.55,40.38,3.18,60.67c-0.06,3.5,1.11,4.49,4.48,4.41
		c7.82-0.21,15.65-0.07,23.47-0.07c8.18,0,16.36-0.06,24.54,0.04c2.55,0.03,3.72-0.83,3.65-3.47c-0.48-19.35,1.72-38.56,2.9-57.83
		c0.36-5.92,0.38-5.83,6.13-7.64c10.62-3.35,16.99-10.61,18.52-21.59C362.88,220.93,359.17,212.56,350.86,206.64z M320.8,317.55
		c-11.83,0-23.66-0.08-35.48,0.06c-2.66,0.04-3.4-0.69-3.37-3.36c0.1-8.55-0.02-8.55,8.67-8.55h15.25c7.1,0,14.19,0.06,21.29-0.04
		c1.95-0.03,2.61,0.47,2.66,2.55C330.02,317.55,330.1,317.55,320.8,317.55z M356.79,233.85c-2.51,8.92-10.27,15.02-20.17,15.63
		c-2.4,0.15-3.25,1.08-3.4,3.44c-0.98,15.01-2.14,30-3.08,45c-0.17,2.79-0.88,3.78-3.88,3.67c-6.86-0.27-13.74-0.09-20.6-0.09
		c-7.11,0-14.22-0.09-21.32,0.05c-2.21,0.04-2.78-0.76-2.91-2.83c-0.9-15.13-1.95-30.25-2.84-45.37c-0.15-2.63-1.01-3.75-3.79-3.87
		c-9.59-0.41-17.34-6.67-19.99-15.82c-2.53-8.73,0.7-18.12,8.13-23.66c7.29-5.43,17.43-5.66,25.22-0.35
		c1.95,1.33,3.24,1.4,5.31,0.05c8.23-5.38,16.64-5.31,24.88,0.11c1.69,1.12,2.88,1.37,4.71,0.13c8.36-5.65,18.09-5.48,25.8,0.21
		C356.1,215.47,359.29,225.02,356.79,233.85z"/>
	<path class="st1" d="M359.67,257.72c-1.73,0.04-2.09,1.55-2.08,3.13c0.04,3.31,0.04,6.63,0,9.95c-0.01,1.3,0.53,2.93-1.9,2.87
		c-2.48-0.06-1.71-1.8-1.74-3.03c-0.09-3.08-0.04-6.15-0.03-9.24c0.01-1.72-0.03-3.72-2.25-3.68c-2.02,0.04-1.97,1.93-1.95,3.53
		c0.04,3.32-0.01,6.63,0.02,9.95c0.01,1.37,0.09,2.52-1.94,2.49c-1.93-0.04-2.06-1.05-2.04-2.49c0.03-3.43,0.01-6.87,0-10.31
		c-0.01-1.45-0.06-3.16-1.96-3.19c-1.87-0.02-2,1.59-1.99,3.11c0.02,7.22,0.01,14.45,0.01,21.67c0,1.07-0.13,2.59,1.05,2.76
		c3.6,0.49,2.72,3.06,2.73,5.23c0.03,3.55,0.01,7.11,0.01,10.66v8.52c0,8.35,0,8.27,8.42,8.1c2.73-0.06,3.75-1.02,3.71-3.8
		c-0.14-8.17-0.06-16.34-0.04-24.52c0.01-1.76-0.7-3.82,2.44-3.92c1.44-0.04,1.71-1.68,1.7-3.09c-0.02-7.23-0.02-14.45,0-21.68
		C361.84,259.16,361.44,257.67,359.67,257.72z M351.7,313.64c-2.02,0.03-1.96-1.07-1.96-2.47c0.03-7.71,0.04-15.41-0.01-23.12
		c-0.01-1.53,0.21-2.39,2.08-2.36c1.92,0.03,2.05,1.03,2.03,2.49c-0.04,3.92-0.01,7.83-0.01,11.74c0,3.8-0.05,7.59,0.02,11.38
		C353.89,312.89,353.51,313.62,351.7,313.64z M355.65,281.57c-1.3-0.05-2.59-0.01-3.89-0.01s-2.6-0.06-3.89,0.01
		c-1.43,0.09-2.17-0.3-2.14-1.94c0.03-1.67,0.88-1.94,2.24-1.92c2.59,0.04,5.19,0.09,7.78-0.01c1.68-0.06,1.85,0.83,1.88,2.19
		C357.67,281.44,356.84,281.61,355.65,281.57z"/>
	<path class="st2" d="M267.26,262.21c-3.8-6.28-11.17-6.18-14.89,0.16c-3.12,5.31-3.77,11.21-0.78,16.57
		c1.99,3.59,2.21,7.05,2.19,10.8c-0.02,3.08-0.01,6.16-0.01,9.24V310c0,7.86,0,7.75,8.04,7.76c3.08,0,4.14-1.08,4.09-4.17
		c-0.16-9.24-0.02-18.47-0.09-27.71c-0.01-1.84,0.44-3.32,1.44-4.91C271.1,274.79,270.97,268.35,267.26,262.21z M261.75,288
		c-0.02,3.9-0.01,7.81-0.01,11.71v11.35c0,1.3,0.22,2.54-1.87,2.57c-2.04,0.03-1.94-1.09-1.93-2.46c0.02-7.69,0.03-15.38-0.01-23.07
		c-0.01-1.47,0.09-2.44,2.02-2.39C261.74,285.76,261.76,286.73,261.75,288z M263.48,279.4c-2.14,2.86-4.84,2.86-7.09,0.12
		c-3.12-3.8-3.17-11.78-0.09-15.69c2.21-2.81,4.84-2.88,7.08-0.08c1.85,2.31,2.44,5.07,2.42,7.59
		C265.8,274.53,265.16,277.15,263.48,279.4z"/>
	<path class="st3" d="M295.78,292.86c0.13,1.36-0.28,2.47-1.69,2.7c-1.49,0.25-2.11-0.9-2.31-2.12c-1.34-7.68-2.63-15.35-3.9-23.04
		c-0.22-1.34,0.29-2.38,1.73-2.61c1.25-0.19,2.11,0.54,2.31,1.7C293.23,277.28,294.5,285.08,295.78,292.86z"/>
	<path class="st3" d="M307.84,292.63c0.02,1.45-0.28,2.83-1.84,2.94c-1.82,0.13-2.31-1.4-2.32-2.91
		c-0.04-7.34-0.03-14.67-0.01-22.01c0.01-1.54,0.45-2.97,2.31-2.89c1.74,0.07,1.87,1.47,1.85,2.86c-0.02,3.67-0.01,7.34-0.01,11
		S307.8,288.96,307.84,292.63z"/>
	<path class="st3" d="M288.11,250.85c0.94-1.87,2.5-1.1,3.95-0.33c9.12,4.86,18.27,4.84,27.43,0.1c1.32-0.68,2.83-1.9,3.94,0.11
		c1.06,1.94-0.61,2.72-1.96,3.45c-4.85,2.66-10.02,4.11-15.79,3.97c-5.37,0.19-10.55-1.26-15.4-3.9
		C288.98,253.55,287.12,252.8,288.11,250.85z"/>
	<path class="st3" d="M323.7,270.69c-1.28,7.55-2.57,15.1-3.82,22.67c-0.23,1.35-0.96,2.35-2.28,2.2c-1.25-0.14-2.04-1.18-1.8-2.59
		c1.3-7.67,2.64-15.34,3.94-23.01c0.26-1.52,0.94-2.49,2.59-2.11C323.84,268.2,323.83,269.43,323.7,270.69z"/>
	<path class="st4" d="M321.46,254.18c-4.85,2.66-10.02,4.11-15.79,3.97c-5.37,0.19-10.55-1.26-15.4-3.9c-1.3-0.7-3.15-1.45-2.16-3.4
		c0.94-1.87,2.5-1.1,3.95-0.33c9.12,4.86,18.27,4.84,27.43,0.1c1.32-0.68,2.83-1.9,3.94,0.11
		C324.48,252.66,322.81,253.45,321.46,254.18z"/>
	<path class="st5" d="M307.84,292.63c0.02,1.45-0.28,2.83-1.84,2.94c-1.82,0.13-2.31-1.4-2.32-2.91
		c-0.04-7.34-0.03-14.67-0.01-22.01c0.01-1.54,0.45-2.97,2.31-2.89c1.74,0.07,1.87,1.47,1.85,2.86c-0.02,3.67-0.01,7.34-0.01,11
		S307.8,288.96,307.84,292.63z"/>
	<path class="st6" d="M323.7,270.69c-1.28,7.55-2.57,15.1-3.82,22.67c-0.23,1.35-0.96,2.35-2.28,2.2c-1.25-0.14-2.04-1.18-1.8-2.59
		c1.3-7.67,2.64-15.34,3.94-23.01c0.26-1.52,0.94-2.49,2.59-2.11C323.84,268.2,323.83,269.43,323.7,270.69z"/>
	<path class="st7" d="M294.08,295.56c-1.49,0.25-2.11-0.9-2.31-2.12c-1.34-7.68-2.63-15.35-3.9-23.04
		c-0.22-1.34,0.29-2.38,1.73-2.61c1.25-0.19,2.11,0.54,2.31,1.7c1.32,7.78,2.59,15.58,3.87,23.37
		C295.91,294.22,295.49,295.33,294.08,295.56z"/>
</g>
</svg>
