<?xml version="1.0" encoding="utf-8"?>
<!-- Generator: Adobe Illustrator 24.1.2, SVG Export Plug-In . SVG Version: 6.00 Build 0)  -->
<svg version="1.1" id="圖層_1" xmlns="http://www.w3.org/2000/svg" xmlns:xlink="http://www.w3.org/1999/xlink" x="0px" y="0px"
	 viewBox="0 0 1280 800" style="enable-background:new 0 0 1280 800;" xml:space="preserve">
<style type="text/css">
	.st0{fill:#383838;}
	.st1{fill:#FFFFFF;}
	.st2{fill:#FEFEFE;}
</style>
<g>
	<path class="st0" d="M811.23,444.82c1.09,1.05,1.27,1.89,0.11,3.01c-2.45,2.37-4.83,4.82-7.25,7.23c-0.62,0.61-1.28,1.32-2.16,0.46
		c-0.86-0.85-0.22-1.58,0.4-2.18c1.81-1.77,3.65-3.52,5.48-5.27c-0.09-0.17-0.18-0.34-0.27-0.5h-14.38c-1,0-2.27,0.14-2.24-1.25
		c0.04-1.39,1.36-1.17,2.32-1.18c2.56-0.02,5.12-0.01,7.68-0.01h6.49c0.08-0.17,0.15-0.34,0.23-0.51c-1.7-1.67-3.41-3.32-5.08-5.01
		c-0.68-0.68-1.69-1.44-0.55-2.46c1.03-0.91,1.66,0.11,2.29,0.73C806.63,440.19,808.88,442.55,811.23,444.82z"/>
	<path class="st1" d="M801.58,421.37c-13.84,0.03-24.86,11.09-24.89,24.97c-0.03,13.81,11.09,25,24.87,25.03
		c13.71,0.03,24.92-11.23,24.91-25.01C826.47,432.53,815.33,421.35,801.58,421.37z M801.32,468.88
		c-12.32-0.08-22.21-10.15-22.16-22.58c0.05-12.54,10.02-22.53,22.46-22.5c12.49,0.03,22.53,10.24,22.43,22.81
		C823.94,459,813.78,468.96,801.32,468.88z"/>
	<path class="st2" d="M811.34,447.84c-2.45,2.37-4.83,4.82-7.25,7.23c-0.62,0.61-1.28,1.32-2.16,0.46c-0.86-0.85-0.22-1.58,0.4-2.18
		c1.81-1.77,3.65-3.52,5.48-5.27c-0.09-0.17-0.18-0.34-0.27-0.5h-14.38c-1,0-2.27,0.14-2.24-1.25c0.04-1.39,1.36-1.17,2.32-1.18
		c2.56-0.02,5.12-0.01,7.68-0.01h6.49c0.08-0.17,0.15-0.34,0.23-0.51c-1.7-1.67-3.41-3.32-5.08-5.01c-0.68-0.68-1.69-1.44-0.55-2.46
		c1.03-0.91,1.66,0.11,2.29,0.73c2.32,2.31,4.57,4.68,6.92,6.95C812.33,445.87,812.5,446.72,811.34,447.84z"/>
	<path class="st1" d="M811.34,447.84c-2.45,2.37-4.83,4.82-7.25,7.23c-0.62,0.61-1.28,1.32-2.16,0.46c-0.86-0.85-0.22-1.58,0.4-2.18
		c1.81-1.77,3.65-3.52,5.48-5.27c-0.09-0.17-0.18-0.34-0.27-0.5h-14.38c-1,0-2.27,0.14-2.24-1.25c0.04-1.39,1.36-1.17,2.32-1.18
		c2.56-0.02,5.12-0.01,7.68-0.01h6.49c0.08-0.17,0.15-0.34,0.23-0.51c-1.7-1.67-3.41-3.32-5.08-5.01c-0.68-0.68-1.69-1.44-0.55-2.46
		c1.03-0.91,1.66,0.11,2.29,0.73c2.32,2.31,4.57,4.68,6.92,6.95C812.33,445.87,812.5,446.72,811.34,447.84z"/>
</g>
</svg>
